<svg width="30" height="18" viewBox="0 0 30 18" fill="none" xmlns="http://www.w3.org/2000/svg">
<path d="M12.0933 9H17.9067M29 12.3333V5.66667M1 12.3333V5.66667M21.9067 17C25.1067 17 25.9067 15.2 25.9067 13V5C25.9067 2.8 25.1067 1 21.9067 1C18.7067 1 17.9067 2.8 17.9067 5V13C17.9067 15.2 18.7067 17 21.9067 17ZM8.09333 17C4.89333 17 4.09333 15.2 4.09333 13V5C4.09333 2.8 4.89333 1 8.09333 1C11.2933 1 12.0933 2.8 12.0933 5V13C12.0933 15.2 11.2933 17 8.09333 17Z" stroke="white" stroke-width="1.5" stroke-linecap="round" stroke-linejoin="round"/>
</svg>
